<svg width="103" height="16" viewBox="0 0 103 16" fill="none" xmlns="http://www.w3.org/2000/svg">
<path d="M14.0078 7.60156V8.73438H9.35938V7.60156H14.0078ZM9.00781 3.85156V3.29688C9.00781 2.76042 9.11719 2.28125 9.33594 1.85938C9.5599 1.4375 9.8724 1.10677 10.2734 0.867188C10.6745 0.622396 11.151 0.5 11.7031 0.5C12.2604 0.5 12.7396 0.622396 13.1406 0.867188C13.5417 1.10677 13.8516 1.4375 14.0703 1.85938C14.2891 2.28125 14.3984 2.76042 14.3984 3.29688V3.85156C14.3984 4.38802 14.2891 4.86719 14.0703 5.28906C13.8568 5.70573 13.5495 6.03646 13.1484 6.28125C12.7474 6.52083 12.2708 6.64062 11.7188 6.64062C11.1615 6.64062 10.6797 6.52083 10.2734 6.28125C9.8724 6.03646 9.5599 5.70573 9.33594 5.28906C9.11719 4.86719 9.00781 4.38802 9.00781 3.85156ZM10.3438 3.29688V3.85156C10.3438 4.15885 10.3932 4.4401 10.4922 4.69531C10.5911 4.94531 10.7422 5.14583 10.9453 5.29688C11.1536 5.44271 11.4115 5.51562 11.7188 5.51562C12.0208 5.51562 12.2708 5.44271 12.4688 5.29688C12.6719 5.14583 12.8203 4.94531 12.9141 4.69531C13.013 4.4401 13.0625 4.15885 13.0625 3.85156V3.29688C13.0625 2.99479 13.013 2.71875 12.9141 2.46875C12.8151 2.21354 12.6641 2.01042 12.4609 1.85938C12.263 1.70833 12.0104 1.63281 11.7031 1.63281C11.401 1.63281 11.1484 1.70833 10.9453 1.85938C10.7422 2.01042 10.5911 2.21354 10.4922 2.46875C10.3932 2.71875 10.3438 2.99479 10.3438 3.29688ZM8.05469 0.625V12H5.57031L2.26562 4.45312V12H0V0.625H2.48438L5.78906 8.17969V0.625H8.05469ZM22.3854 7.85938V7.69531C22.3854 7.07552 22.474 6.50521 22.651 5.98438C22.8281 5.45833 23.0859 5.0026 23.4245 4.61719C23.763 4.23177 24.1797 3.93229 24.6745 3.71875C25.1693 3.5 25.737 3.39062 26.3776 3.39062C27.0182 3.39062 27.5885 3.5 28.0885 3.71875C28.5885 3.93229 29.0078 4.23177 29.3464 4.61719C29.6901 5.0026 29.9505 5.45833 30.1276 5.98438C30.3047 6.50521 30.3932 7.07552 30.3932 7.69531V7.85938C30.3932 8.47396 30.3047 9.04427 30.1276 9.57031C29.9505 10.0911 29.6901 10.5469 29.3464 10.9375C29.0078 11.3229 28.5911 11.6224 28.0964 11.8359C27.6016 12.0495 27.0339 12.1562 26.3932 12.1562C25.7526 12.1562 25.1823 12.0495 24.6823 11.8359C24.1875 11.6224 23.7682 11.3229 23.4245 10.9375C23.0859 10.5469 22.8281 10.0911 22.651 9.57031C22.474 9.04427 22.3854 8.47396 22.3854 7.85938ZM24.6354 7.69531V7.85938C24.6354 8.21354 24.6667 8.54427 24.7292 8.85156C24.7917 9.15885 24.8906 9.42969 25.026 9.66406C25.1667 9.89323 25.349 10.0729 25.5729 10.2031C25.7969 10.3333 26.0703 10.3984 26.3932 10.3984C26.7057 10.3984 26.974 10.3333 27.1979 10.2031C27.4219 10.0729 27.6016 9.89323 27.737 9.66406C27.8724 9.42969 27.9714 9.15885 28.0339 8.85156C28.1016 8.54427 28.1354 8.21354 28.1354 7.85938V7.69531C28.1354 7.35156 28.1016 7.02865 28.0339 6.72656C27.9714 6.41927 27.8698 6.14844 27.7292 5.91406C27.5937 5.67448 27.4141 5.48698 27.1901 5.35156C26.9661 5.21615 26.6953 5.14844 26.3776 5.14844C26.0599 5.14844 25.7891 5.21615 25.5651 5.35156C25.3464 5.48698 25.1667 5.67448 25.026 5.91406C24.8906 6.14844 24.7917 6.41927 24.7292 6.72656C24.6667 7.02865 24.6354 7.35156 24.6354 7.69531ZM38.7969 3.54688V5.3125H34.7031V3.54688H38.7969ZM35.3516 3.54688V12H33.1016V3.54688H35.3516ZM40.4375 3.54688V12H38.1797V3.54688H40.4375ZM47.3958 12.1562C46.7396 12.1562 46.151 12.0521 45.6302 11.8438C45.1094 11.6302 44.6667 11.3359 44.3021 10.9609C43.9427 10.5859 43.6667 10.151 43.474 9.65625C43.2812 9.15625 43.1849 8.625 43.1849 8.0625V7.75C43.1849 7.10938 43.276 6.52344 43.4583 5.99219C43.6406 5.46094 43.901 5 44.2396 4.60938C44.5833 4.21875 45 3.91927 45.4896 3.71094C45.9792 3.4974 46.5312 3.39062 47.1458 3.39062C47.7448 3.39062 48.276 3.48958 48.7396 3.6875C49.2031 3.88542 49.5911 4.16667 49.9036 4.53125C50.2214 4.89583 50.4609 5.33333 50.6224 5.84375C50.7839 6.34896 50.8646 6.91146 50.8646 7.53125V8.46875H44.1458V6.96875H48.6536V6.79688C48.6536 6.48438 48.5964 6.20573 48.4818 5.96094C48.3724 5.71094 48.2057 5.51302 47.9818 5.36719C47.7578 5.22135 47.4714 5.14844 47.1224 5.14844C46.8255 5.14844 46.5703 5.21354 46.3568 5.34375C46.1432 5.47396 45.9687 5.65625 45.8333 5.89062C45.7031 6.125 45.6042 6.40104 45.5365 6.71875C45.474 7.03125 45.4427 7.375 45.4427 7.75V8.0625C45.4427 8.40104 45.4896 8.71354 45.5833 9C45.6823 9.28646 45.8203 9.53385 45.9974 9.74219C46.1797 9.95052 46.3984 10.112 46.6536 10.2266C46.9141 10.3411 47.2083 10.3984 47.5365 10.3984C47.9427 10.3984 48.3203 10.3203 48.6693 10.1641C49.0234 10.0026 49.3281 9.76042 49.5833 9.4375L50.6771 10.625C50.5 10.8802 50.2578 11.125 49.9505 11.3594C49.6484 11.5938 49.2839 11.7865 48.8568 11.9375C48.4297 12.0833 47.9427 12.1562 47.3958 12.1562ZM55.7292 5.17188V15.25H53.4792V3.54688H55.5651L55.7292 5.17188ZM61.0807 7.67969V7.84375C61.0807 8.45833 61.0078 9.02865 60.862 9.55469C60.7214 10.0807 60.513 10.5391 60.237 10.9297C59.9609 11.3151 59.6172 11.6172 59.2057 11.8359C58.7995 12.0495 58.3307 12.1562 57.7995 12.1562C57.2839 12.1562 56.8359 12.0521 56.4557 11.8438C56.0755 11.6354 55.7552 11.3438 55.4948 10.9688C55.2396 10.5885 55.0339 10.1484 54.8776 9.64844C54.7214 9.14844 54.6016 8.61198 54.5182 8.03906V7.60938C54.6016 6.99479 54.7214 6.43229 54.8776 5.92188C55.0339 5.40625 55.2396 4.96094 55.4948 4.58594C55.7552 4.20573 56.0729 3.91146 56.4479 3.70312C56.8281 3.49479 57.2734 3.39062 57.7839 3.39062C58.3203 3.39062 58.7917 3.49219 59.1979 3.69531C59.6094 3.89844 59.9531 4.1901 60.2292 4.57031C60.5104 4.95052 60.7214 5.40365 60.862 5.92969C61.0078 6.45573 61.0807 7.03906 61.0807 7.67969ZM58.8229 7.84375V7.67969C58.8229 7.32031 58.7917 6.98958 58.7292 6.6875C58.6719 6.38021 58.5781 6.11198 58.4479 5.88281C58.3229 5.65365 58.1563 5.47656 57.9479 5.35156C57.7448 5.22135 57.4974 5.15625 57.2057 5.15625C56.8984 5.15625 56.6354 5.20573 56.4167 5.30469C56.2031 5.40365 56.0286 5.54688 55.8932 5.73438C55.7578 5.92188 55.6563 6.14583 55.5885 6.40625C55.5208 6.66667 55.4792 6.96094 55.4635 7.28906V8.375C55.4896 8.76042 55.5625 9.10677 55.6823 9.41406C55.8021 9.71615 55.987 9.95573 56.237 10.1328C56.487 10.3099 56.8151 10.3984 57.2214 10.3984C57.5182 10.3984 57.7682 10.3333 57.9714 10.2031C58.1745 10.0677 58.3385 9.88281 58.4635 9.64844C58.5938 9.41406 58.6849 9.14323 58.737 8.83594C58.7943 8.52865 58.8229 8.19792 58.8229 7.84375ZM68.375 10.0938V6.32812C68.375 6.05729 68.3307 5.82552 68.2422 5.63281C68.1536 5.4349 68.0156 5.28125 67.8281 5.17188C67.6458 5.0625 67.4089 5.00781 67.1172 5.00781C66.8672 5.00781 66.651 5.05208 66.4688 5.14062C66.2865 5.22396 66.1458 5.34635 66.0469 5.50781C65.9479 5.66406 65.8984 5.84896 65.8984 6.0625H63.6484C63.6484 5.70312 63.7318 5.36198 63.8984 5.03906C64.0651 4.71615 64.3073 4.43229 64.625 4.1875C64.9427 3.9375 65.3203 3.74219 65.7578 3.60156C66.2005 3.46094 66.6953 3.39062 67.2422 3.39062C67.8984 3.39062 68.4818 3.5 68.9922 3.71875C69.5026 3.9375 69.9036 4.26562 70.1953 4.70312C70.4922 5.14062 70.6406 5.6875 70.6406 6.34375V9.96094C70.6406 10.4245 70.6693 10.8047 70.7266 11.1016C70.7839 11.3932 70.8672 11.6484 70.9766 11.8672V12H68.7031C68.5938 11.7708 68.5104 11.4844 68.4531 11.1406C68.401 10.7917 68.375 10.4427 68.375 10.0938ZM68.6719 6.85156L68.6875 8.125H67.4297C67.1328 8.125 66.875 8.15885 66.6562 8.22656C66.4375 8.29427 66.2578 8.39062 66.1172 8.51562C65.9766 8.63542 65.8724 8.77604 65.8047 8.9375C65.7422 9.09896 65.7109 9.27604 65.7109 9.46875C65.7109 9.66146 65.7552 9.83594 65.8438 9.99219C65.9323 10.1432 66.0599 10.263 66.2266 10.3516C66.3932 10.4349 66.5885 10.4766 66.8125 10.4766C67.151 10.4766 67.4453 10.4089 67.6953 10.2734C67.9453 10.138 68.138 9.97135 68.2734 9.77344C68.4141 9.57552 68.487 9.38802 68.4922 9.21094L69.0859 10.1641C69.0026 10.3776 68.888 10.599 68.7422 10.8281C68.6016 11.0573 68.4219 11.2734 68.2031 11.4766C67.9844 11.6745 67.7214 11.8385 67.4141 11.9688C67.1068 12.0938 66.7422 12.1562 66.3203 12.1562C65.7839 12.1562 65.2969 12.0495 64.8594 11.8359C64.4271 11.6172 64.0833 11.3177 63.8281 10.9375C63.5781 10.5521 63.4531 10.1146 63.4531 9.625C63.4531 9.18229 63.5365 8.78906 63.7031 8.44531C63.8698 8.10156 64.1146 7.8125 64.4375 7.57812C64.7656 7.33854 65.1745 7.15885 65.6641 7.03906C66.1536 6.91406 66.7214 6.85156 67.3672 6.85156H68.6719ZM73.7005 12V3.54688H75.9505V10.2422H78.7786V3.54688H81.0365V12H73.7005ZM82.3021 10.25L82.1536 14.5078H80.0599V12H79.1146V10.25H82.3021ZM87.0182 8.85938L89.8542 3.54688H92.1042V12H89.8542V6.67969L87.0182 12H84.7682V3.54688H87.0182V8.85938ZM97.4141 8.85938L100.25 3.54688H102.5V12H100.25V6.67969L97.4141 12H95.1641V3.54688H97.4141V8.85938Z" fill="#052C65"/>
</svg>
