<svg width="87" height="16" viewBox="0 0 87 16" fill="none" xmlns="http://www.w3.org/2000/svg">
<path d="M2.36719 0.625V12H0.0234375V0.625H2.36719ZM9.07031 0.625L4.71094 7.30469H1.84375L1.54688 5.21875H3.46094L6.22656 0.625H9.07031ZM6.65625 12L3.46875 6.91406L5.09375 5.24219L9.4375 12H6.65625ZM16.1146 10.0938V6.32812C16.1146 6.05729 16.0703 5.82552 15.9818 5.63281C15.8932 5.4349 15.7552 5.28125 15.5677 5.17188C15.3854 5.0625 15.1484 5.00781 14.8568 5.00781C14.6068 5.00781 14.3906 5.05208 14.2083 5.14062C14.026 5.22396 13.8854 5.34635 13.7865 5.50781C13.6875 5.66406 13.638 5.84896 13.638 6.0625H11.388C11.388 5.70312 11.4714 5.36198 11.638 5.03906C11.8047 4.71615 12.0469 4.43229 12.3646 4.1875C12.6823 3.9375 13.0599 3.74219 13.4974 3.60156C13.9401 3.46094 14.4349 3.39062 14.9818 3.39062C15.638 3.39062 16.2214 3.5 16.7318 3.71875C17.2422 3.9375 17.6432 4.26562 17.9349 4.70312C18.2318 5.14062 18.3802 5.6875 18.3802 6.34375V9.96094C18.3802 10.4245 18.4089 10.8047 18.4661 11.1016C18.5234 11.3932 18.6068 11.6484 18.7161 11.8672V12H16.4427C16.3333 11.7708 16.25 11.4844 16.1927 11.1406C16.1406 10.7917 16.1146 10.4427 16.1146 10.0938ZM16.4115 6.85156L16.4271 8.125H15.1693C14.8724 8.125 14.6146 8.15885 14.3958 8.22656C14.1771 8.29427 13.9974 8.39062 13.8568 8.51562C13.7161 8.63542 13.612 8.77604 13.5443 8.9375C13.4818 9.09896 13.4505 9.27604 13.4505 9.46875C13.4505 9.66146 13.4948 9.83594 13.5833 9.99219C13.6719 10.1432 13.7995 10.263 13.9661 10.3516C14.1328 10.4349 14.3281 10.4766 14.5521 10.4766C14.8906 10.4766 15.1849 10.4089 15.4349 10.2734C15.6849 10.138 15.8776 9.97135 16.013 9.77344C16.1536 9.57552 16.2266 9.38802 16.2318 9.21094L16.8255 10.1641C16.7422 10.3776 16.6276 10.599 16.4818 10.8281C16.3411 11.0573 16.1615 11.2734 15.9427 11.4766C15.724 11.6745 15.4609 11.8385 15.1536 11.9688C14.8464 12.0938 14.4818 12.1562 14.0599 12.1562C13.5234 12.1562 13.0365 12.0495 12.599 11.8359C12.1667 11.6172 11.8229 11.3177 11.5677 10.9375C11.3177 10.5521 11.1927 10.1146 11.1927 9.625C11.1927 9.18229 11.276 8.78906 11.4427 8.44531C11.6094 8.10156 11.8542 7.8125 12.1771 7.57812C12.5052 7.33854 12.9141 7.15885 13.4036 7.03906C13.8932 6.91406 14.4609 6.85156 15.1068 6.85156H16.4115ZM25.6276 3.54688V12H23.3698V3.54688H25.6276ZM28.3464 3.54688V5.28906H20.6901V3.54688H28.3464ZM34.1719 12.1562C33.5156 12.1562 32.9271 12.0521 32.4062 11.8438C31.8854 11.6302 31.4427 11.3359 31.0781 10.9609C30.7188 10.5859 30.4427 10.151 30.25 9.65625C30.0573 9.15625 29.9609 8.625 29.9609 8.0625V7.75C29.9609 7.10938 30.0521 6.52344 30.2344 5.99219C30.4167 5.46094 30.6771 5 31.0156 4.60938C31.3594 4.21875 31.776 3.91927 32.2656 3.71094C32.7552 3.4974 33.3073 3.39062 33.9219 3.39062C34.5208 3.39062 35.0521 3.48958 35.5156 3.6875C35.9792 3.88542 36.3672 4.16667 36.6797 4.53125C36.9974 4.89583 37.237 5.33333 37.3984 5.84375C37.5599 6.34896 37.6406 6.91146 37.6406 7.53125V8.46875H30.9219V6.96875H35.4297V6.79688C35.4297 6.48438 35.3724 6.20573 35.2578 5.96094C35.1484 5.71094 34.9818 5.51302 34.7578 5.36719C34.5339 5.22135 34.2474 5.14844 33.8984 5.14844C33.6016 5.14844 33.3464 5.21354 33.1328 5.34375C32.9193 5.47396 32.7448 5.65625 32.6094 5.89062C32.4792 6.125 32.3802 6.40104 32.3125 6.71875C32.25 7.03125 32.2188 7.375 32.2188 7.75V8.0625C32.2188 8.40104 32.2656 8.71354 32.3594 9C32.4583 9.28646 32.5964 9.53385 32.7734 9.74219C32.9557 9.95052 33.1745 10.112 33.4297 10.2266C33.6901 10.3411 33.9844 10.3984 34.3125 10.3984C34.7188 10.3984 35.0964 10.3203 35.4453 10.1641C35.7995 10.0026 36.1042 9.76042 36.3594 9.4375L37.4531 10.625C37.276 10.8802 37.0339 11.125 36.7266 11.3594C36.4245 11.5938 36.0599 11.7865 35.6328 11.9375C35.2057 12.0833 34.7188 12.1562 34.1719 12.1562ZM46.0052 3.54688V5.3125H42.4896V12H40.2396V3.54688H46.0052ZM47.7917 7.85938V7.69531C47.7917 7.07552 47.8802 6.50521 48.0573 5.98438C48.2344 5.45833 48.4922 5.0026 48.8307 4.61719C49.1693 4.23177 49.5859 3.93229 50.0807 3.71875C50.5755 3.5 51.1432 3.39062 51.7839 3.39062C52.4245 3.39062 52.9948 3.5 53.4948 3.71875C53.9948 3.93229 54.4141 4.23177 54.7526 4.61719C55.0964 5.0026 55.3568 5.45833 55.5339 5.98438C55.7109 6.50521 55.7995 7.07552 55.7995 7.69531V7.85938C55.7995 8.47396 55.7109 9.04427 55.5339 9.57031C55.3568 10.0911 55.0964 10.5469 54.7526 10.9375C54.4141 11.3229 53.9974 11.6224 53.5026 11.8359C53.0078 12.0495 52.4401 12.1562 51.7995 12.1562C51.1589 12.1562 50.5885 12.0495 50.0885 11.8359C49.5938 11.6224 49.1745 11.3229 48.8307 10.9375C48.4922 10.5469 48.2344 10.0911 48.0573 9.57031C47.8802 9.04427 47.7917 8.47396 47.7917 7.85938ZM50.0417 7.69531V7.85938C50.0417 8.21354 50.0729 8.54427 50.1354 8.85156C50.1979 9.15885 50.2969 9.42969 50.4323 9.66406C50.5729 9.89323 50.7552 10.0729 50.9792 10.2031C51.2031 10.3333 51.4766 10.3984 51.7995 10.3984C52.112 10.3984 52.3802 10.3333 52.6042 10.2031C52.8281 10.0729 53.0078 9.89323 53.1432 9.66406C53.2786 9.42969 53.3776 9.15885 53.4401 8.85156C53.5078 8.54427 53.5417 8.21354 53.5417 7.85938V7.69531C53.5417 7.35156 53.5078 7.02865 53.4401 6.72656C53.3776 6.41927 53.276 6.14844 53.1354 5.91406C53 5.67448 52.8203 5.48698 52.5964 5.35156C52.3724 5.21615 52.1016 5.14844 51.7839 5.14844C51.4661 5.14844 51.1953 5.21615 50.9714 5.35156C50.7526 5.48698 50.5729 5.67448 50.4323 5.91406C50.2969 6.14844 50.1979 6.41927 50.1354 6.72656C50.0729 7.02865 50.0417 7.35156 50.0417 7.69531ZM60.7656 5.17188V15.25H58.5156V3.54688H60.6016L60.7656 5.17188ZM66.1172 7.67969V7.84375C66.1172 8.45833 66.0443 9.02865 65.8984 9.55469C65.7578 10.0807 65.5495 10.5391 65.2734 10.9297C64.9974 11.3151 64.6536 11.6172 64.2422 11.8359C63.8359 12.0495 63.3672 12.1562 62.8359 12.1562C62.3203 12.1562 61.8724 12.0521 61.4922 11.8438C61.112 11.6354 60.7917 11.3438 60.5312 10.9688C60.276 10.5885 60.0703 10.1484 59.9141 9.64844C59.7578 9.14844 59.638 8.61198 59.5547 8.03906V7.60938C59.638 6.99479 59.7578 6.43229 59.9141 5.92188C60.0703 5.40625 60.276 4.96094 60.5312 4.58594C60.7917 4.20573 61.1094 3.91146 61.4844 3.70312C61.8646 3.49479 62.3099 3.39062 62.8203 3.39062C63.3568 3.39062 63.8281 3.49219 64.2344 3.69531C64.6458 3.89844 64.9896 4.1901 65.2656 4.57031C65.5469 4.95052 65.7578 5.40365 65.8984 5.92969C66.0443 6.45573 66.1172 7.03906 66.1172 7.67969ZM63.8594 7.84375V7.67969C63.8594 7.32031 63.8281 6.98958 63.7656 6.6875C63.7083 6.38021 63.6146 6.11198 63.4844 5.88281C63.3594 5.65365 63.1927 5.47656 62.9844 5.35156C62.7812 5.22135 62.5339 5.15625 62.2422 5.15625C61.9349 5.15625 61.6719 5.20573 61.4531 5.30469C61.2396 5.40365 61.0651 5.54688 60.9297 5.73438C60.7943 5.92188 60.6927 6.14583 60.625 6.40625C60.5573 6.66667 60.5156 6.96094 60.5 7.28906V8.375C60.526 8.76042 60.599 9.10677 60.7188 9.41406C60.8385 9.71615 61.0234 9.95573 61.2734 10.1328C61.5234 10.3099 61.8516 10.3984 62.2578 10.3984C62.5547 10.3984 62.8047 10.3333 63.0078 10.2031C63.2109 10.0677 63.375 9.88281 63.5 9.64844C63.6302 9.41406 63.7214 9.14323 63.7734 8.83594C63.8307 8.52865 63.8594 8.19792 63.8594 7.84375ZM71.0911 8.85938L73.9271 3.54688H76.1771V12H73.9271V6.67969L71.0911 12H68.8411V3.54688H71.0911V8.85938ZM81.0651 7.78125H83.3464L80.9948 12H78.7214L81.0651 7.78125ZM82.5807 3.54688H86.2917V12H84.0417V5.28906H82.5807C82.2734 5.28906 82.0182 5.34635 81.8151 5.46094C81.612 5.57031 81.4609 5.71354 81.362 5.89062C81.2682 6.0625 81.2214 6.23958 81.2214 6.42188C81.2214 6.59896 81.2682 6.77083 81.362 6.9375C81.4557 7.10417 81.6016 7.24219 81.7995 7.35156C81.9974 7.46094 82.2448 7.51562 82.5417 7.51562H84.8776V9.04688H82.5417C81.9844 9.04688 81.4844 8.97917 81.0417 8.84375C80.6042 8.70833 80.2292 8.52083 79.9167 8.28125C79.6094 8.03646 79.3724 7.7526 79.2057 7.42969C79.0443 7.10156 78.9635 6.74219 78.9635 6.35156C78.9635 5.94531 79.0469 5.57292 79.2135 5.23438C79.3802 4.89583 79.6198 4.59896 79.9323 4.34375C80.2448 4.08854 80.6224 3.89323 81.0651 3.75781C81.513 3.61719 82.0182 3.54688 82.5807 3.54688Z" fill="#052C65"/>
</svg>
