<svg width="57" height="16" viewBox="0 0 57 16" fill="none" xmlns="http://www.w3.org/2000/svg">
<path d="M7.60938 8.22656H9.94531C9.89844 8.99219 9.6875 9.67188 9.3125 10.2656C8.94271 10.8594 8.42448 11.3229 7.75781 11.6562C7.09635 11.9896 6.29948 12.1562 5.36719 12.1562C4.63802 12.1562 3.98438 12.0312 3.40625 11.7812C2.82812 11.526 2.33333 11.1615 1.92188 10.6875C1.51562 10.2135 1.20573 9.64062 0.992188 8.96875C0.778646 8.29688 0.671875 7.54427 0.671875 6.71094V5.92188C0.671875 5.08854 0.78125 4.33594 1 3.66406C1.22396 2.98698 1.54167 2.41146 1.95312 1.9375C2.36979 1.46354 2.86719 1.09896 3.44531 0.84375C4.02344 0.588542 4.66927 0.460938 5.38281 0.460938C6.33073 0.460938 7.13021 0.632812 7.78125 0.976562C8.4375 1.32031 8.94531 1.79427 9.30469 2.39844C9.66927 3.0026 9.88802 3.6901 9.96094 4.46094H7.61719C7.59115 4.0026 7.5 3.61458 7.34375 3.29688C7.1875 2.97396 6.95052 2.73177 6.63281 2.57031C6.32031 2.40365 5.90365 2.32031 5.38281 2.32031C4.99219 2.32031 4.65104 2.39323 4.35938 2.53906C4.06771 2.6849 3.82292 2.90625 3.625 3.20312C3.42708 3.5 3.27865 3.875 3.17969 4.32812C3.08594 4.77604 3.03906 5.30208 3.03906 5.90625V6.71094C3.03906 7.29948 3.08333 7.81771 3.17188 8.26562C3.26042 8.70833 3.39583 9.08333 3.57812 9.39062C3.76562 9.69271 4.00521 9.92188 4.29688 10.0781C4.59375 10.2292 4.95052 10.3047 5.36719 10.3047C5.85677 10.3047 6.26042 10.2266 6.57812 10.0703C6.89583 9.91406 7.13802 9.68229 7.30469 9.375C7.47656 9.06771 7.57812 8.6849 7.60938 8.22656ZM15.1849 11.0469L17.4271 3.54688H19.8411L16.4427 13.2734C16.3698 13.487 16.2708 13.7161 16.1458 13.9609C16.026 14.2057 15.862 14.4375 15.6536 14.6562C15.4505 14.8802 15.1927 15.0625 14.8802 15.2031C14.5729 15.3438 14.1953 15.4141 13.7474 15.4141C13.5339 15.4141 13.3594 15.401 13.224 15.375C13.0885 15.349 12.9271 15.3125 12.7396 15.2656V13.6172C12.7969 13.6172 12.8568 13.6172 12.9193 13.6172C12.9818 13.6224 13.0417 13.625 13.099 13.625C13.3958 13.625 13.638 13.5911 13.8255 13.5234C14.013 13.4557 14.1641 13.3516 14.2786 13.2109C14.3932 13.0755 14.4844 12.8984 14.5521 12.6797L15.1849 11.0469ZM14.2474 3.54688L16.0833 9.67188L16.4036 12.0547L14.8724 12.2188L11.8333 3.54688H14.2474ZM27.2135 9.41406L29.4323 3.54688H31.2682L27.9714 12H26.4557L23.1745 3.54688H25.0104L27.2135 9.41406ZM24.4714 3.54688V12H22.2214V3.54688H24.4714ZM30.0104 12V3.54688H32.2604V12H30.0104ZM40.7031 9.41406L42.9219 3.54688H44.7578L41.4609 12H39.9453L36.6641 3.54688H38.5L40.7031 9.41406ZM37.9609 3.54688V12H35.7109V3.54688H37.9609ZM43.5 12V3.54688H45.75V12H43.5ZM53.6146 10.0938V6.32812C53.6146 6.05729 53.5703 5.82552 53.4818 5.63281C53.3932 5.4349 53.2552 5.28125 53.0677 5.17188C52.8854 5.0625 52.6484 5.00781 52.3568 5.00781C52.1068 5.00781 51.8906 5.05208 51.7083 5.14062C51.526 5.22396 51.3854 5.34635 51.2865 5.50781C51.1875 5.66406 51.138 5.84896 51.138 6.0625H48.888C48.888 5.70312 48.9714 5.36198 49.138 5.03906C49.3047 4.71615 49.5469 4.43229 49.8646 4.1875C50.1823 3.9375 50.5599 3.74219 50.9974 3.60156C51.4401 3.46094 51.9349 3.39062 52.4818 3.39062C53.138 3.39062 53.7214 3.5 54.2318 3.71875C54.7422 3.9375 55.1432 4.26562 55.4349 4.70312C55.7318 5.14062 55.8802 5.6875 55.8802 6.34375V9.96094C55.8802 10.4245 55.9089 10.8047 55.9661 11.1016C56.0234 11.3932 56.1068 11.6484 56.2161 11.8672V12H53.9427C53.8333 11.7708 53.75 11.4844 53.6927 11.1406C53.6406 10.7917 53.6146 10.4427 53.6146 10.0938ZM53.9115 6.85156L53.9271 8.125H52.6693C52.3724 8.125 52.1146 8.15885 51.8958 8.22656C51.6771 8.29427 51.4974 8.39062 51.3568 8.51562C51.2161 8.63542 51.112 8.77604 51.0443 8.9375C50.9818 9.09896 50.9505 9.27604 50.9505 9.46875C50.9505 9.66146 50.9948 9.83594 51.0833 9.99219C51.1719 10.1432 51.2995 10.263 51.4661 10.3516C51.6328 10.4349 51.8281 10.4766 52.0521 10.4766C52.3906 10.4766 52.6849 10.4089 52.9349 10.2734C53.1849 10.138 53.3776 9.97135 53.513 9.77344C53.6536 9.57552 53.7266 9.38802 53.7318 9.21094L54.3255 10.1641C54.2422 10.3776 54.1276 10.599 53.9818 10.8281C53.8411 11.0573 53.6615 11.2734 53.4427 11.4766C53.224 11.6745 52.9609 11.8385 52.6536 11.9688C52.3464 12.0938 51.9818 12.1562 51.5599 12.1562C51.0234 12.1562 50.5365 12.0495 50.099 11.8359C49.6667 11.6172 49.3229 11.3177 49.0677 10.9375C48.8177 10.5521 48.6927 10.1146 48.6927 9.625C48.6927 9.18229 48.776 8.78906 48.9427 8.44531C49.1094 8.10156 49.3542 7.8125 49.6771 7.57812C50.0052 7.33854 50.4141 7.15885 50.9036 7.03906C51.3932 6.91406 51.9609 6.85156 52.6068 6.85156H53.9115Z" fill="#052C65"/>
</svg>
