<svg width="41" height="15" viewBox="0 0 41 15" fill="none" xmlns="http://www.w3.org/2000/svg">
<path d="M10.0391 10.1719V12H1.84375V10.1719H10.0391ZM2.53906 10.1719V14.7891H0.335938L0.210938 10.1719H2.53906ZM11.7266 10.1719L11.5234 14.7969H9.375V10.1719H11.7266ZM8.75 0.625V2.46094H3.27344V0.625H8.75ZM10.4219 0.625V12H8.08594V0.625H10.4219ZM2.98438 0.625H5.32812L5.02344 5.25781C4.97656 6.02344 4.89323 6.70052 4.77344 7.28906C4.65885 7.8724 4.51823 8.38542 4.35156 8.82812C4.1901 9.27083 4.01042 9.65885 3.8125 9.99219C3.61458 10.3203 3.40625 10.6068 3.1875 10.8516C2.96875 11.0911 2.7474 11.3047 2.52344 11.4922C2.29948 11.6745 2.08073 11.8438 1.86719 12H0.523438V10.1719H1.04688C1.19792 10.0469 1.35677 9.875 1.52344 9.65625C1.69531 9.4375 1.85677 9.14323 2.00781 8.77344C2.16406 8.39844 2.29948 7.92448 2.41406 7.35156C2.53385 6.77865 2.6224 6.08073 2.67969 5.25781L2.98438 0.625ZM18.6927 10.0938V6.32812C18.6927 6.05729 18.6484 5.82552 18.5599 5.63281C18.4714 5.4349 18.3333 5.28125 18.1458 5.17188C17.9635 5.0625 17.7266 5.00781 17.4349 5.00781C17.1849 5.00781 16.9687 5.05208 16.7865 5.14062C16.6042 5.22396 16.4635 5.34635 16.3646 5.50781C16.2656 5.66406 16.2161 5.84896 16.2161 6.0625H13.9661C13.9661 5.70312 14.0495 5.36198 14.2161 5.03906C14.3828 4.71615 14.625 4.43229 14.9427 4.1875C15.2604 3.9375 15.638 3.74219 16.0755 3.60156C16.5182 3.46094 17.013 3.39062 17.5599 3.39062C18.2161 3.39062 18.7995 3.5 19.3099 3.71875C19.8203 3.9375 20.2214 4.26562 20.513 4.70312C20.8099 5.14062 20.9583 5.6875 20.9583 6.34375V9.96094C20.9583 10.4245 20.987 10.8047 21.0443 11.1016C21.1016 11.3932 21.1849 11.6484 21.2943 11.8672V12H19.0208C18.9115 11.7708 18.8281 11.4844 18.7708 11.1406C18.7187 10.7917 18.6927 10.4427 18.6927 10.0938ZM18.9896 6.85156L19.0052 8.125H17.7474C17.4505 8.125 17.1927 8.15885 16.974 8.22656C16.7552 8.29427 16.5755 8.39062 16.4349 8.51562C16.2943 8.63542 16.1901 8.77604 16.1224 8.9375C16.0599 9.09896 16.0286 9.27604 16.0286 9.46875C16.0286 9.66146 16.0729 9.83594 16.1615 9.99219C16.25 10.1432 16.3776 10.263 16.5443 10.3516C16.7109 10.4349 16.9062 10.4766 17.1302 10.4766C17.4687 10.4766 17.763 10.4089 18.013 10.2734C18.263 10.138 18.4557 9.97135 18.5911 9.77344C18.7318 9.57552 18.8047 9.38802 18.8099 9.21094L19.4036 10.1641C19.3203 10.3776 19.2057 10.599 19.0599 10.8281C18.9193 11.0573 18.7396 11.2734 18.5208 11.4766C18.3021 11.6745 18.0391 11.8385 17.7318 11.9688C17.4245 12.0938 17.0599 12.1562 16.638 12.1562C16.1016 12.1562 15.6146 12.0495 15.1771 11.8359C14.7448 11.6172 14.401 11.3177 14.1458 10.9375C13.8958 10.5521 13.7708 10.1146 13.7708 9.625C13.7708 9.18229 13.8542 8.78906 14.0208 8.44531C14.1875 8.10156 14.4323 7.8125 14.7552 7.57812C15.0833 7.33854 15.4922 7.15885 15.9818 7.03906C16.4714 6.91406 17.0391 6.85156 17.6849 6.85156H18.9896ZM28.2057 3.54688V12H25.9479V3.54688H28.2057ZM30.9245 3.54688V5.28906H23.2682V3.54688H30.9245ZM37.8438 10.0938V6.32812C37.8438 6.05729 37.7995 5.82552 37.7109 5.63281C37.6224 5.4349 37.4844 5.28125 37.2969 5.17188C37.1146 5.0625 36.8776 5.00781 36.5859 5.00781C36.3359 5.00781 36.1198 5.05208 35.9375 5.14062C35.7552 5.22396 35.6146 5.34635 35.5156 5.50781C35.4167 5.66406 35.3672 5.84896 35.3672 6.0625H33.1172C33.1172 5.70312 33.2005 5.36198 33.3672 5.03906C33.5339 4.71615 33.776 4.43229 34.0938 4.1875C34.4115 3.9375 34.7891 3.74219 35.2266 3.60156C35.6693 3.46094 36.1641 3.39062 36.7109 3.39062C37.3672 3.39062 37.9505 3.5 38.4609 3.71875C38.9714 3.9375 39.3724 4.26562 39.6641 4.70312C39.9609 5.14062 40.1094 5.6875 40.1094 6.34375V9.96094C40.1094 10.4245 40.138 10.8047 40.1953 11.1016C40.2526 11.3932 40.3359 11.6484 40.4453 11.8672V12H38.1719C38.0625 11.7708 37.9792 11.4844 37.9219 11.1406C37.8698 10.7917 37.8438 10.4427 37.8438 10.0938ZM38.1406 6.85156L38.1562 8.125H36.8984C36.6016 8.125 36.3438 8.15885 36.125 8.22656C35.9062 8.29427 35.7266 8.39062 35.5859 8.51562C35.4453 8.63542 35.3411 8.77604 35.2734 8.9375C35.2109 9.09896 35.1797 9.27604 35.1797 9.46875C35.1797 9.66146 35.224 9.83594 35.3125 9.99219C35.401 10.1432 35.5286 10.263 35.6953 10.3516C35.862 10.4349 36.0573 10.4766 36.2812 10.4766C36.6198 10.4766 36.9141 10.4089 37.1641 10.2734C37.4141 10.138 37.6068 9.97135 37.7422 9.77344C37.8828 9.57552 37.9557 9.38802 37.9609 9.21094L38.5547 10.1641C38.4714 10.3776 38.3568 10.599 38.2109 10.8281C38.0703 11.0573 37.8906 11.2734 37.6719 11.4766C37.4531 11.6745 37.1901 11.8385 36.8828 11.9688C36.5755 12.0938 36.2109 12.1562 35.7891 12.1562C35.2526 12.1562 34.7656 12.0495 34.3281 11.8359C33.8958 11.6172 33.5521 11.3177 33.2969 10.9375C33.0469 10.5521 32.9219 10.1146 32.9219 9.625C32.9219 9.18229 33.0052 8.78906 33.1719 8.44531C33.3385 8.10156 33.5833 7.8125 33.9062 7.57812C34.2344 7.33854 34.6432 7.15885 35.1328 7.03906C35.6224 6.91406 36.1901 6.85156 36.8359 6.85156H38.1406Z" fill="#052C65"/>
</svg>
