<svg width="117" height="16" viewBox="0 0 117 16" fill="none" xmlns="http://www.w3.org/2000/svg">
<path d="M2.36719 0.625V12H0.0234375V0.625H2.36719ZM9.07031 0.625L4.71094 7.30469H1.84375L1.54688 5.21875H3.46094L6.22656 0.625H9.07031ZM6.65625 12L3.46875 6.91406L5.09375 5.24219L9.4375 12H6.65625ZM10.974 7.85938V7.69531C10.974 7.07552 11.0625 6.50521 11.2396 5.98438C11.4167 5.45833 11.6745 5.0026 12.013 4.61719C12.3516 4.23177 12.7682 3.93229 13.263 3.71875C13.7578 3.5 14.3255 3.39062 14.9661 3.39062C15.6068 3.39062 16.1771 3.5 16.6771 3.71875C17.1771 3.93229 17.5964 4.23177 17.9349 4.61719C18.2786 5.0026 18.5391 5.45833 18.7161 5.98438C18.8932 6.50521 18.9818 7.07552 18.9818 7.69531V7.85938C18.9818 8.47396 18.8932 9.04427 18.7161 9.57031C18.5391 10.0911 18.2786 10.5469 17.9349 10.9375C17.5964 11.3229 17.1797 11.6224 16.6849 11.8359C16.1901 12.0495 15.6224 12.1562 14.9818 12.1562C14.3411 12.1562 13.7708 12.0495 13.2708 11.8359C12.776 11.6224 12.3568 11.3229 12.013 10.9375C11.6745 10.5469 11.4167 10.0911 11.2396 9.57031C11.0625 9.04427 10.974 8.47396 10.974 7.85938ZM13.224 7.69531V7.85938C13.224 8.21354 13.2552 8.54427 13.3177 8.85156C13.3802 9.15885 13.4792 9.42969 13.6146 9.66406C13.7552 9.89323 13.9375 10.0729 14.1615 10.2031C14.3854 10.3333 14.6589 10.3984 14.9818 10.3984C15.2943 10.3984 15.5625 10.3333 15.7865 10.2031C16.0104 10.0729 16.1901 9.89323 16.3255 9.66406C16.4609 9.42969 16.5599 9.15885 16.6224 8.85156C16.6901 8.54427 16.724 8.21354 16.724 7.85938V7.69531C16.724 7.35156 16.6901 7.02865 16.6224 6.72656C16.5599 6.41927 16.4583 6.14844 16.3177 5.91406C16.1823 5.67448 16.0026 5.48698 15.7786 5.35156C15.5547 5.21615 15.2839 5.14844 14.9661 5.14844C14.6484 5.14844 14.3776 5.21615 14.1536 5.35156C13.9349 5.48698 13.7552 5.67448 13.6146 5.91406C13.4792 6.14844 13.3802 6.41927 13.3177 6.72656C13.2552 7.02865 13.224 7.35156 13.224 7.69531ZM26.8385 9.41406L29.0573 3.54688H30.8932L27.5964 12H26.0807L22.7995 3.54688H24.6354L26.8385 9.41406ZM24.0964 3.54688V12H21.8464V3.54688H24.0964ZM29.6354 12V3.54688H31.8854V12H29.6354ZM40.3281 9.41406L42.5469 3.54688H44.3828L41.0859 12H39.5703L36.2891 3.54688H38.125L40.3281 9.41406ZM37.5859 3.54688V12H35.3359V3.54688H37.5859ZM43.125 12V3.54688H45.375V12H43.125ZM52.5677 12.1562C51.9115 12.1562 51.3229 12.0521 50.8021 11.8438C50.2812 11.6302 49.8385 11.3359 49.474 10.9609C49.1146 10.5859 48.8385 10.151 48.6458 9.65625C48.4531 9.15625 48.3568 8.625 48.3568 8.0625V7.75C48.3568 7.10938 48.4479 6.52344 48.6302 5.99219C48.8125 5.46094 49.0729 5 49.4115 4.60938C49.7552 4.21875 50.1719 3.91927 50.6615 3.71094C51.151 3.4974 51.7031 3.39062 52.3177 3.39062C52.9167 3.39062 53.4479 3.48958 53.9115 3.6875C54.375 3.88542 54.763 4.16667 55.0755 4.53125C55.3932 4.89583 55.6328 5.33333 55.7943 5.84375C55.9557 6.34896 56.0365 6.91146 56.0365 7.53125V8.46875H49.3177V6.96875H53.8255V6.79688C53.8255 6.48438 53.7682 6.20573 53.6536 5.96094C53.5443 5.71094 53.3776 5.51302 53.1536 5.36719C52.9297 5.22135 52.6432 5.14844 52.2943 5.14844C51.9974 5.14844 51.7422 5.21354 51.5286 5.34375C51.3151 5.47396 51.1406 5.65625 51.0052 5.89062C50.875 6.125 50.776 6.40104 50.7083 6.71875C50.6458 7.03125 50.6146 7.375 50.6146 7.75V8.0625C50.6146 8.40104 50.6615 8.71354 50.7552 9C50.8542 9.28646 50.9922 9.53385 51.1693 9.74219C51.3516 9.95052 51.5703 10.112 51.8255 10.2266C52.0859 10.3411 52.3802 10.3984 52.7083 10.3984C53.1146 10.3984 53.4922 10.3203 53.8411 10.1641C54.1953 10.0026 54.5 9.76042 54.7552 9.4375L55.849 10.625C55.6719 10.8802 55.4297 11.125 55.1224 11.3594C54.8203 11.5938 54.4557 11.7865 54.0286 11.9375C53.6016 12.0833 53.1146 12.1562 52.5677 12.1562ZM64.4401 6.96094V8.71094H60.1432V6.96094H64.4401ZM60.8932 3.54688V12H58.6432V3.54688H60.8932ZM65.9635 3.54688V12H63.7057V3.54688H65.9635ZM73.3516 3.54688V12H71.0938V3.54688H73.3516ZM76.0703 3.54688V5.28906H68.4141V3.54688H76.0703ZM82.9896 10.0938V6.32812C82.9896 6.05729 82.9453 5.82552 82.8568 5.63281C82.7682 5.4349 82.6302 5.28125 82.4427 5.17188C82.2604 5.0625 82.0234 5.00781 81.7318 5.00781C81.4818 5.00781 81.2656 5.05208 81.0833 5.14062C80.901 5.22396 80.7604 5.34635 80.6615 5.50781C80.5625 5.66406 80.513 5.84896 80.513 6.0625H78.263C78.263 5.70312 78.3464 5.36198 78.513 5.03906C78.6797 4.71615 78.9219 4.43229 79.2396 4.1875C79.5573 3.9375 79.9349 3.74219 80.3724 3.60156C80.8151 3.46094 81.3099 3.39062 81.8568 3.39062C82.513 3.39062 83.0964 3.5 83.6068 3.71875C84.1172 3.9375 84.5182 4.26562 84.8099 4.70312C85.1068 5.14062 85.2552 5.6875 85.2552 6.34375V9.96094C85.2552 10.4245 85.2839 10.8047 85.3411 11.1016C85.3984 11.3932 85.4818 11.6484 85.5911 11.8672V12H83.3177C83.2083 11.7708 83.125 11.4844 83.0677 11.1406C83.0156 10.7917 82.9896 10.4427 82.9896 10.0938ZM83.2865 6.85156L83.3021 8.125H82.0443C81.7474 8.125 81.4896 8.15885 81.2708 8.22656C81.0521 8.29427 80.8724 8.39062 80.7318 8.51562C80.5911 8.63542 80.487 8.77604 80.4193 8.9375C80.3568 9.09896 80.3255 9.27604 80.3255 9.46875C80.3255 9.66146 80.3698 9.83594 80.4583 9.99219C80.5469 10.1432 80.6745 10.263 80.8411 10.3516C81.0078 10.4349 81.2031 10.4766 81.4271 10.4766C81.7656 10.4766 82.0599 10.4089 82.3099 10.2734C82.5599 10.138 82.7526 9.97135 82.888 9.77344C83.0286 9.57552 83.1016 9.38802 83.1068 9.21094L83.7005 10.1641C83.6172 10.3776 83.5026 10.599 83.3568 10.8281C83.2161 11.0573 83.0365 11.2734 82.8177 11.4766C82.599 11.6745 82.3359 11.8385 82.0286 11.9688C81.7214 12.0938 81.3568 12.1562 80.9349 12.1562C80.3984 12.1562 79.9115 12.0495 79.474 11.8359C79.0417 11.6172 78.6979 11.3177 78.4427 10.9375C78.1927 10.5521 78.0677 10.1146 78.0677 9.625C78.0677 9.18229 78.151 8.78906 78.3177 8.44531C78.4844 8.10156 78.7292 7.8125 79.0521 7.57812C79.3802 7.33854 79.7891 7.15885 80.2786 7.03906C80.7682 6.91406 81.3359 6.85156 81.9818 6.85156H83.2865ZM90.5729 5.17188V15.25H88.3229V3.54688H90.4089L90.5729 5.17188ZM95.9245 7.67969V7.84375C95.9245 8.45833 95.8516 9.02865 95.7057 9.55469C95.5651 10.0807 95.3568 10.5391 95.0807 10.9297C94.8047 11.3151 94.4609 11.6172 94.0495 11.8359C93.6432 12.0495 93.1745 12.1562 92.6432 12.1562C92.1276 12.1562 91.6797 12.0521 91.2995 11.8438C90.9193 11.6354 90.599 11.3438 90.3385 10.9688C90.0833 10.5885 89.8776 10.1484 89.7214 9.64844C89.5651 9.14844 89.4453 8.61198 89.362 8.03906V7.60938C89.4453 6.99479 89.5651 6.43229 89.7214 5.92188C89.8776 5.40625 90.0833 4.96094 90.3385 4.58594C90.599 4.20573 90.9167 3.91146 91.2917 3.70312C91.6719 3.49479 92.1172 3.39062 92.6276 3.39062C93.1641 3.39062 93.6354 3.49219 94.0417 3.69531C94.4531 3.89844 94.7969 4.1901 95.0729 4.57031C95.3542 4.95052 95.5651 5.40365 95.7057 5.92969C95.8516 6.45573 95.9245 7.03906 95.9245 7.67969ZM93.6667 7.84375V7.67969C93.6667 7.32031 93.6354 6.98958 93.5729 6.6875C93.5156 6.38021 93.4219 6.11198 93.2917 5.88281C93.1667 5.65365 93 5.47656 92.7917 5.35156C92.5885 5.22135 92.3411 5.15625 92.0495 5.15625C91.7422 5.15625 91.4792 5.20573 91.2604 5.30469C91.0469 5.40365 90.8724 5.54688 90.737 5.73438C90.6016 5.92188 90.5 6.14583 90.4323 6.40625C90.3646 6.66667 90.3229 6.96094 90.3073 7.28906V8.375C90.3333 8.76042 90.4062 9.10677 90.526 9.41406C90.6458 9.71615 90.8307 9.95573 91.0807 10.1328C91.3307 10.3099 91.6589 10.3984 92.0651 10.3984C92.362 10.3984 92.612 10.3333 92.8151 10.2031C93.0182 10.0677 93.1823 9.88281 93.3073 9.64844C93.4375 9.41406 93.5286 9.14323 93.5807 8.83594C93.638 8.52865 93.6667 8.19792 93.6667 7.84375ZM100.898 8.85938L103.734 3.54688H105.984V12H103.734V6.67969L100.898 12H98.6484V3.54688H100.898V8.85938ZM111.294 8.85938L114.13 3.54688H116.38V12H114.13V6.67969L111.294 12H109.044V3.54688H111.294V8.85938ZM113.872 0.148438H115.474C115.474 0.596354 115.362 0.994792 115.138 1.34375C114.919 1.6875 114.607 1.95833 114.201 2.15625C113.794 2.34896 113.315 2.44531 112.763 2.44531C111.924 2.44531 111.26 2.23177 110.771 1.80469C110.286 1.3776 110.044 0.825521 110.044 0.148438H111.638C111.638 0.419271 111.721 0.661458 111.888 0.875C112.06 1.08854 112.352 1.19531 112.763 1.19531C113.169 1.19531 113.456 1.08854 113.622 0.875C113.789 0.661458 113.872 0.419271 113.872 0.148438Z" fill="#052C65"/>
</svg>
